# xmcd CD database file
#
# Track frame offsets:
#	150
#	38656
#	69756
#	99505
#	140394
#	177322
#
# Disc length: 2743 seconds
#
# Revision: 0
# Processed by: cddbd v1.5.2PL0 Copyright (c) Steve Scherf et al.
# Submitted via: CDex 1.77
#
DISCID=450ab506
DTITLE=John Abercrombie - Abercrombie Quartet
DYEAR=1979
DGENRE=Jazz
TTITLE0=Blue Wolf
TTITLE1=Dear Rain
TTITLE2=Stray
TTITLE3=Madagascar
TTITLE4=Riddles
TTITLE5=Foolish Dog
EXTD=YEAR: 1979
EXTT0=
EXTT1=
EXTT2=
EXTT3=
EXTT4=
EXTT5=
PLAYORDER=
